[img]http://img442.imageshack.us/img442/782/saw7asianposter.jpg[/img]
Info
[code]
Format: AVI
Format/Info: Audio Video Interleave - http://www.imdb.com/title/tt1477076/
File size: 1.25 GiB
Duration: 1h 23mn
Overall bit rate: 2 142 Kbps
Writing application: VirtualDubMod 1.5.10.2 (build 2540/release)
Writing library: VirtualDub build 32839/release

Video
Format: MPEG-4 Visual
Format profile: Streaming Video@L1
Format settings, BVOP: Yes
Format settings, QPel: No
Format settings, GMC: No warppoints
Format settings, Matrix: Custom
Codec ID: XVID
Codec ID/Hint: XviD
Duration: 1h 23mn
Bit rate: 2 004 Kbps
Width: 720 pixels
Height: 352 pixels
Display aspect ratio: 2.045
Frame rate: 25.000 fps
Resolution: 24 bits
Colorimetry: 4:2:0
Scan type: Progressive
Bits/(Pixel*Frame): 0.316
Stream size: 1.17 GiB (94%)
Writing library: XviD 1.2.1 (UTC 2008-12-04)

Audio
Format: MPEG Audio
Format version: Version 1
Format profile: Layer 3
Codec ID: 55
Codec ID/Hint: MP3
Duration: 1h 23mn
Bit rate mode: Constant
Bit rate: 128 Kbps
Channel(s): 2 channels
Sampling rate: 44.1 KHz
Resolution: 16 bits
Video delay: 26ms
Stream size: 76.6 MiB (6%)
Alignment: Split accross interleaves
Interleave, duration: 40 ms (1.00 video frame)
Interleave, preload duration: 500 ms 
Audio : LKRG
Viedo: Russian
[/code]
Screens:
[img]http://img714.imageshack.us/img714/9131/a6e6bb0615449077cfc83ef.png[/img]
[img]http://img600.imageshack.us/img600/3426/b49ee6ae5fff01b3ad35ae5.png[/img]
[img]http://img593.imageshack.us/img593/4263/e215c025706d72929400641.png[/img]
